<svg width="169" height="45" xmlns="http://www.w3.org/2000/svg">
  <g fill="none" fill-rule="evenodd">
    <rect x=".854994" width="167.290012" height="44.9701" rx="4" fill="#000"/>
    <path d="M47.52 28.13c-3.27 0-5.52-2.295-5.52-5.43 0-2.985 2.325-5.43 5.505-5.43 1.89 0 3.03.51 4.125 1.44l-1.455 1.755c-.81-.675-1.53-1.065-2.745-1.065-1.68 0-3.015 1.485-3.015 3.3 0 1.92 1.32 3.33 3.18 3.33.84 0 1.59-.21 2.175-.63v-1.5h-2.325v-1.995h4.56v4.56c-1.08.915-2.565 1.665-4.485 1.665zm10.275 0c-2.415 0-4.2-1.695-4.2-4.185 0-2.295 1.635-4.185 3.975-4.185 2.685 0 3.915 2.085 3.915 4.365 0 .18-.015.39-.03.6H55.86c.225 1.035.945 1.575 1.965 1.575.765 0 1.32-.24 1.95-.825l1.305 1.155c-.75.93-1.83 1.5-3.285 1.5zM55.83 23.3h3.435c-.135-1.02-.735-1.71-1.695-1.71-.945 0-1.56.675-1.74 1.71zm10.065 4.785c-1.395 0-2.34-.555-2.34-2.415v-3.81h-.96v-1.95h.96v-2.055h2.28v2.055h1.89v1.95h-1.89v3.435c0 .525.225.78.735.78.42 0 .795-.105 1.125-.285v1.83c-.48.285-1.035.465-1.8.465zm10.83.015c-1.125 0-2.385-.375-3.45-1.215l.975-1.5c.87.63 1.785.96 2.535.96.66 0 .96-.24.96-.63 0-.495-.78-.66-1.665-.93-1.125-.33-2.4-.855-2.4-2.445 0-1.635 1.32-2.55 2.94-2.55 1.02 0 2.13.345 3 .93l-.87 1.575c-.795-.465-1.59-.75-2.175-.75-.555 0-.84.24-.84.585 0 .45.765.66 1.635.96 1.125.375 2.43.915 2.43 2.415 0 1.785-1.335 2.595-3.075 2.595zm7.425-.015c-1.395 0-2.34-.555-2.34-2.415v-3.81h-.96v-1.95h.96v-2.055h2.28v2.055h1.89v1.95h-1.89v3.435c0 .525.225.78.735.78.42 0 .795-.105 1.125-.285v1.83c-.48.285-1.035.465-1.8.465zm5.79.015c-1.515 0-2.76-.87-2.76-2.49 0-1.755 1.335-2.565 3.24-2.565.81 0 1.395.135 1.965.33v-.135c0-.945-.585-1.47-1.725-1.47-.87 0-1.485.165-2.22.435l-.57-1.74c.885-.39 1.755-.645 3.12-.645 1.245 0 2.145.33 2.715.9.6.6.87 1.485.87 2.565v4.665H92.37v-.87c-.555.615-1.32 1.02-2.43 1.02zm.69-1.575c1.065 0 1.785-.585 1.785-1.41v-.405c-.39-.18-.9-.3-1.455-.3-.975 0-1.575.39-1.575 1.14 0 .615.51.975 1.245.975zm5.91 1.425v-8.04h2.28v1.62c.465-1.11 1.215-1.83 2.565-1.77v2.385h-.12c-1.515 0-2.445.915-2.445 2.835v2.97h-2.28zm8.985.135c-1.395 0-2.34-.555-2.34-2.415v-3.81h-.96v-1.95h.96v-2.055h2.28v2.055h1.89v1.95h-1.89v3.435c0 .525.225.78.735.78.42 0 .795-.105 1.125-.285v1.83c-.48.285-1.035.465-1.8.465zm7.32.045c-2.415 0-4.2-1.695-4.2-4.185 0-2.295 1.635-4.185 3.975-4.185 2.685 0 3.915 2.085 3.915 4.365 0 .18-.015.39-.03.6h-5.595c.225 1.035.945 1.575 1.965 1.575.765 0 1.32-.24 1.95-.825l1.305 1.155c-.75.93-1.83 1.5-3.285 1.5zm-1.965-4.83h3.435c-.135-1.02-.735-1.71-1.695-1.71-.945 0-1.56.675-1.74 1.71zm10.65 4.8c-1.875 0-3.66-1.47-3.66-4.185 0-2.685 1.755-4.155 3.66-4.155 1.215 0 1.965.555 2.505 1.2V17h2.28v10.95h-2.28v-1.155c-.555.75-1.32 1.305-2.505 1.305zm.585-1.935c1.065 0 1.95-.885 1.95-2.25 0-1.335-.885-2.22-1.95-2.22s-1.965.87-1.965 2.25c0 1.335.9 2.22 1.965 2.22z" fill="#FFF"/>
  </g>
</svg>
