<svg width="108" height="24" xmlns="http://www.w3.org/2000/svg">
  <g fill-rule="nonzero" fill="#000">
    <path d="M17.83273 0H5.247194C2.349858 0 0 2.443535 0 5.457488v13.08614C0 21.55758 2.349858 24 5.247194 24H17.83273c2.89841 0 5.247194-2.442419 5.247194-5.456372V5.456372C23.079924 2.443535 20.730066 0 17.83273 0zm-3.401873 6.457674c.575388 0 1.04128.484466 1.04128 1.082791 0 .598326-.465892 1.08279-1.04128 1.08279s-1.04128-.484464-1.04128-1.08279c0-.598325.465892-1.08279 1.04128-1.08279zm0 3.058605c.575388 0 1.04128.484465 1.04128 1.08279 0 .598326-.465892 1.082792-1.04128 1.082792s-1.04128-.484466-1.04128-1.082791c0-.598326.465892-1.08279 1.04128-1.08279zm-2.934908-3.058605c.575388 0 1.04128.484466 1.04128 1.082791 0 .598326-.465892 1.08279-1.04128 1.08279s-1.04128-.484464-1.04128-1.08279c0-.598325.465892-1.08279 1.04128-1.08279zm0 3.058605c.575388 0 1.04128.484465 1.04128 1.08279 0 .598326-.465892 1.082792-1.04128 1.082792s-1.04128-.484466-1.04128-1.082791c0-.598326.465892-1.08279 1.04128-1.08279zM8.561042 6.457674c.575388 0 1.04128.484466 1.04128 1.082791 0 .598326-.465892 1.08279-1.04128 1.08279s-1.04128-.484464-1.04128-1.08279c0-.598325.465892-1.08279 1.04128-1.08279zm0 3.058605c.575388 0 1.04128.484465 1.04128 1.08279 0 .598326-.465892 1.082792-1.04128 1.082792s-1.04128-.484466-1.04128-1.082791c0-.598326.465892-1.08279 1.04128-1.08279zM5.73885 20.954791c-1.099248 0-1.991314-.927628-1.991314-2.070698 0-1.144186.892066-2.071814 1.991314-2.071814 1.100322 0 1.992388.927628 1.992388 2.071814.001073 1.14307-.892066 2.070698-1.992388 2.070698zm11.509905.09265c-1.099249 0-1.991315-.927627-1.991315-2.070697 0-1.144186.892066-2.071814 1.991314-2.071814 1.100322 0 1.992388.927628 1.992388 2.071814 0 1.14307-.892066 2.070698-1.992387 2.070698zm3.498487-16.843534l-2.058944 7.974698c-.549625 2.128744-2.284376 3.46493-4.404509 3.46493h-1.357958c-.448717 0-1.098175-.25228-1.36762-.515721a.115588.115588 0 0 0-.161022 0c-.269445.263442-.918903.51572-1.36762.51572H8.537425c-2.052503 0-3.607983-1.216743-4.230604-3.250604L2.555967 6.682047c-.034351-.11386-.016102-.23442.052601-.331535.06763-.096.171758-.151814.288768-.151814l.334927.001116c.80726.003349 1.514687.542512 1.758368 1.341767l1.286035 4.199442c.347809 1.137489 1.461013 1.90214 2.608568 1.90214l.49917-.001117c.515273 0 .878111-.274604 1.097102-.520186.11379-.128372.272665-.203162.441202-.203162l1.120719.001116c.158875 0 .313457.06586.419732.187535.21255.242232.589343.534698 1.10891.534698l.475554.001116c1.185127 0 2.33483-.831628 2.64292-2.021582l1.667121-6.456558c.217918-.840558.953255-1.426604 1.7895-1.426604h.294134c.027911 0 .055822.004465.081585.015628.18786.082604.270519.273488.224359.44986z"/>
    <path d="M17.248755 18.233302c-.39397 0-.713868.332652-.713868.743442 0 .41079.319899.743442.713867.743442.395043 0 .714941-.332651.714941-.743442 0-.41079-.319898-.743442-.71494-.743442zM5.73885 18.140651c-.393969 0-.713867.332651-.713867.743442 0 .41079.319898.743442.713867.743442.395042 0 .71494-.332651.71494-.743442 0-.41079-.319898-.743442-.71494-.743442z"/>
    <g>
      <path d="M61.626619 18.155163c-.518493 0-1.085293-.025674-1.336489.445395-.787938 1.480187-2.587098 1.944559-4.065287 1.944559-2.940275 0-5.174197-2.483721-5.174197-5.536745 0-3.053023 2.233922-5.536744 5.174197-5.536744 1.30643 0 3.00683.262326 4.015907 1.848558.285547.448745.8502.346047 1.368693.346047.72675 0 .551771-.900837.266224-1.350698-1.468527-2.308465-3.882795-2.794046-5.64975-2.794046-3.975115 0-7.208451 3.357767-7.208451 7.48465 0 4.126885 3.23441 7.484652 7.20845 7.484652 2.569923 0 4.780228-1.155349 5.769981-3.013953.250122-.468838.399337-1.321675-.369278-1.321675zM88.706347 7.912186c-.518493 0-.938225.236652-.938225.774698v12.917581c0 .538047.419732.705489.938225.705489.518494 0 .938226-.167442.938226-.705489V8.686884c.001074-.538046-.419732-.774698-.938226-.774698zM88.706347 1.562791c-.656972 0-1.191568.55479-1.191568 1.237953 0 .683163.534596 1.237954 1.191568 1.237954.656973 0 1.191569-.55479 1.191569-1.237954.001073-.683162-.533522-1.237953-1.191569-1.237953zM83.394744 7.98586c-.018249 0-.054747-.002232-.05582-.002232-.003221 0-.884552 0-1.152923.696558-.25871.67535-1.668196 5.287814-3.16034 9.78307-.048307.146233-.106275.289116-.15995.432l-3.208645-8.38214c-.142774-.359441-.355324-.62958-.633356-.791441-.15995-.096-.338148-.162977-.559286-.162977-.002147 0-.00322.001116-.005367.001116s-.00322-.001116-.005368-.001116c-.221138 0-.399336.066977-.559285.162977-.279107.16186-.490583.430883-.633357.791442l-3.208646 8.38214c-.053674-.142885-.111642-.285768-.159949-.432-1.503952-4.532094-2.90163-9.108838-3.16034-9.78307-.267297-.696559-1.18942-.695443-1.20767-.694326-.472333.010046-.660193.138418-.645164.455442-.002147.072558.00322.150697.026837.243348.071923.286884 2.31658 7.399814 4.144725 12.79814.119157.351628.376793.85172.985459.85172.40363 0 .703133-.276836.811555-.561487l3.430857-9.094326c.033278-.083721.106275-.125023.179272-.127256.07407.002233.147068.043535.179272.127256l3.430858 9.094326c.108422.28465.429394.561488.811554.561488.620474 0 .873817-.496744.98546-.851721 1.715428-5.421767 4.0728-12.511256 4.144724-12.79814.023617-.09265.028984-.17079.026837-.243348.01825-.317024-.16961-.445396-.641944-.455442zM46.316578 20.297303H34.01444c-.206109 0-.372499-.173024-.372499-.386233V12.672h10.755245c.500244 0 .720308-.454325.720308-1.014697s-.220064-1.014698-.720308-1.014698H33.641942V4.136931c0-.225489.176052-.408559.39397-.408559h12.280666c.500244 0 .720308-.454325.720308-1.014697s-.220064-1.014698-.720308-1.014698H32.445007c-.53889 0-.884552.531349-.884552 1.362977l.001073 18.181953c.008588.539163.303797 1.083907.790085 1.083907h13.964965c.500244 0 .720308-.454325.720308-1.014697 0-.561489-.220064-1.015814-.720308-1.015814zM106.41026 1.562791c-.518494 0-.938226.236651-.938226.774698v7.635349c-1.06597-1.811721-3.125988-2.433489-4.940177-2.433489-3.97082 0-7.200937 3.354419-7.200937 7.476837 0 4.122419 3.230116 7.476838 7.200937 7.476838 1.549038 0 3.962232-.80707 4.940177-2.559628v1.643162c0 .00335.002147.005582.002147.00893 0 .018977.00322.03014.00644.031256.023617.50121.427248.66642.929639.66642.518493 0 .938225-.167443.938225-.70549V2.33749c0-.538047-.419732-.774698-.938225-.774698zm-5.879477 18.983442c-2.937054 0-5.14414-2.480372-5.14414-5.530047 0-3.049674 2.207086-5.530046 5.14414-5.530046 1.702547 0 4.915487 1.061581 4.940177 5.01321v.893022c-.023616 3.888-3.39758 5.15386-4.940177 5.15386z"/>
    </g>
  </g>
</svg>
