<svg width="270" height="75" xmlns="http://www.w3.org/2000/svg">
  <g fill="none" fill-rule="evenodd">
    <path fill="#FDDE00" d="M2 66h267v9H2z"/>
    <path d="M37.775 34.97c-4.34 0-8.47-1.365-11.48-4.06l3.78-4.515c2.415 1.925 5.11 2.94 7.945 2.94 1.82 0 2.8-.63 2.8-1.75 0-1.015-.805-1.575-4.13-2.345-5.215-1.19-9.24-2.66-9.24-7.77 0-4.55 3.605-7.84 9.485-7.84 4.165 0 7.42 1.12 10.08 3.255L43.62 17.68c-2.24-1.575-4.69-2.415-6.86-2.415-1.645 0-2.45.7-2.45 1.645 0 1.12.84 1.61 4.235 2.38 5.635 1.225 9.135 3.045 9.135 7.7 0 5.005-3.955 7.98-9.905 7.98zm19.8975-.035c-3.99 0-6.37-1.75-6.37-6.265v-7.7h-2.24v-5.355h2.24V10.82h6.65v4.795h4.41v5.355h-4.41v6.405c0 1.33.595 1.89 1.82 1.89.875 0 1.715-.245 2.52-.63v5.215c-1.19.665-2.765 1.085-4.62 1.085zm12.8975.035c-3.605 0-6.37-2.065-6.37-5.915 0-3.92 2.975-5.95 7.42-5.95 1.75 0 3.465.35 4.55.735v-.315c0-1.96-1.225-3.08-3.78-3.08-1.995 0-3.535.385-5.215 1.05l-1.365-4.69c2.135-.875 4.41-1.47 7.665-1.47 3.395 0 5.705.805 7.21 2.31 1.435 1.4 2.03 3.36 2.03 6.02V34.55h-6.58v-1.96c-1.295 1.435-3.08 2.38-5.565 2.38zm2.38-4.165c1.925 0 3.29-1.225 3.29-3.115v-.875c-.665-.28-1.61-.49-2.59-.49-1.925 0-3.045.945-3.045 2.415 0 1.295.98 2.065 2.345 2.065zm13.0725 3.745V15.615h6.65v3.815c1.085-2.59 2.835-4.27 5.985-4.13v7h-.56c-3.465 0-5.425 1.995-5.425 6.37v5.88h-6.65zm22.4175.385c-3.99 0-6.37-1.75-6.37-6.265v-7.7h-2.24v-5.355h2.24V10.82h6.65v4.795h4.41v5.355h-4.41v6.405c0 1.33.595 1.89 1.82 1.89.875 0 1.715-.245 2.52-.63v5.215c-1.19.665-2.765 1.085-4.62 1.085zm27.09.035c-4.34 0-8.47-1.365-11.48-4.06l3.78-4.515c2.415 1.925 5.11 2.94 7.945 2.94 1.82 0 2.8-.63 2.8-1.75 0-1.015-.805-1.575-4.13-2.345-5.215-1.19-9.24-2.66-9.24-7.77 0-4.55 3.605-7.84 9.485-7.84 4.165 0 7.42 1.12 10.08 3.255l-3.395 4.795c-2.24-1.575-4.69-2.415-6.86-2.415-1.645 0-2.45.7-2.45 1.645 0 1.12.84 1.61 4.235 2.38 5.635 1.225 9.135 3.045 9.135 7.7 0 5.005-3.955 7.98-9.905 7.98zm22.1025.035c-5.95 0-10.15-3.955-10.15-9.905 0-5.53 3.955-9.905 9.555-9.905 6.545 0 9.555 4.795 9.555 10.36 0 .42 0 .91-.035 1.365h-12.67c.525 2.065 2.03 3.115 4.095 3.115 1.575 0 2.835-.595 4.2-1.925l3.675 3.045c-1.82 2.31-4.445 3.85-8.225 3.85zm-3.85-11.48h6.58c-.245-2.1-1.47-3.43-3.29-3.43-1.75 0-2.94 1.365-3.29 3.43zM169.48 34.55V9h6.65v25.55h-6.65zm10.4125 0V9h6.65v25.55h-6.65zm10.4125 0V15.615h6.65V34.55h-6.65zm-.14-20.65V9h6.93v4.9h-6.93zm10.4125 20.65V15.615h6.65v2.66c1.225-1.575 2.975-3.08 5.67-3.08 4.025 0 6.44 2.66 6.44 6.965v12.39h-6.65V24.295c0-2.065-1.085-3.185-2.66-3.185-1.61 0-2.8 1.12-2.8 3.185V34.55h-6.65zm31.4125 5.67c-3.675 0-6.755-.77-9.485-2.17l2.135-4.41c2.03 1.12 4.06 1.785 6.615 1.785 3.325 0 4.97-1.645 4.97-4.655v-.735c-1.33 1.54-3.08 2.835-5.845 2.835-4.655 0-8.4-3.36-8.4-8.855 0-5.46 3.815-8.82 8.19-8.82 2.835 0 4.515 1.155 5.95 2.66v-2.24h6.65V30c0 3.465-.77 5.88-2.45 7.56-1.715 1.715-4.375 2.66-8.33 2.66zm.385-12.46c2.24 0 3.85-1.575 3.85-3.745 0-2.1-1.61-3.64-3.85-3.64-2.275 0-3.885 1.575-3.885 3.745 0 2.1 1.61 3.64 3.885 3.64zM17.16 70.04C9.6 70.04 4 64.405 4 57.3c0-7.035 5.67-12.74 13.23-12.74 7.56 0 13.16 5.635 13.16 12.74 0 7.035-5.67 12.74-13.23 12.74zm.07-6.125c3.745 0 6.23-3.01 6.23-6.615 0-3.535-2.555-6.615-6.3-6.615-3.71 0-6.195 3.01-6.195 6.615 0 3.535 2.555 6.615 6.265 6.615zm16.2225 5.635V50.615h6.65v2.66c1.225-1.575 2.975-3.08 5.67-3.08 4.025 0 6.44 2.66 6.44 6.965v12.39h-6.65V59.295c0-2.065-1.085-3.185-2.66-3.185-1.61 0-2.8 1.12-2.8 3.185V69.55h-6.65zm22.2425 0V44h6.65v25.55h-6.65zm10.4125 0V50.615h6.65V69.55h-6.65zm-.14-20.65V44h6.93v4.9h-6.93zM76.38 69.55V50.615h6.65v2.66c1.225-1.575 2.975-3.08 5.67-3.08 4.025 0 6.44 2.66 6.44 6.965v12.39h-6.65V59.295c0-2.065-1.085-3.185-2.66-3.185-1.61 0-2.8 1.12-2.8 3.185V69.55h-6.65zm31.4825.455c-5.95 0-10.15-3.955-10.15-9.905 0-5.53 3.955-9.905 9.555-9.905 6.545 0 9.555 4.795 9.555 10.36 0 .42 0 .91-.035 1.365h-12.67c.525 2.065 2.03 3.115 4.095 3.115 1.575 0 2.835-.595 4.2-1.925l3.675 3.045c-1.82 2.31-4.445 3.85-8.225 3.85zm-3.85-11.48h6.58c-.245-2.1-1.47-3.43-3.29-3.43-1.75 0-2.94 1.365-3.29 3.43zm26.355 11.025V55.935h-2.205V50.72h2.205v-.42c0-2.17.49-3.78 1.61-4.9 1.155-1.155 2.695-1.645 4.935-1.645 2.03 0 3.29.21 4.34.525v4.69c-.77-.245-1.54-.385-2.485-.385-1.225 0-1.89.56-1.89 1.785v.455h4.34v5.11h-4.235V69.55h-6.615zm22.1725.455c-6.055 0-10.43-4.445-10.43-9.905 0-5.39 4.41-9.905 10.5-9.905 6.055 0 10.43 4.445 10.43 9.905 0 5.39-4.41 9.905-10.5 9.905zm.07-5.635c2.415 0 3.955-1.925 3.955-4.27 0-2.31-1.68-4.27-4.025-4.27-2.415 0-3.955 1.925-3.955 4.27 0 2.31 1.68 4.27 4.025 4.27zm13.1425 5.18V50.615h6.65v3.815c1.085-2.59 2.835-4.27 5.985-4.13v7h-.56c-3.465 0-5.425 1.995-5.425 6.37v5.88h-6.65zm24.885 0v-24.5h19.6V51h-12.81v4.165h11.585V60.8h-11.585v8.75h-6.79zm22.2075 0V50.615h6.65v3.815c1.085-2.59 2.835-4.27 5.985-4.13v7h-.56c-3.465 0-5.425 1.995-5.425 6.37v5.88h-6.65zm23.9225.455c-5.95 0-10.15-3.955-10.15-9.905 0-5.53 3.955-9.905 9.555-9.905 6.545 0 9.555 4.795 9.555 10.36 0 .42 0 .91-.035 1.365h-12.67c.525 2.065 2.03 3.115 4.095 3.115 1.575 0 2.835-.595 4.2-1.925l3.675 3.045c-1.82 2.31-4.445 3.85-8.225 3.85zm-3.85-11.48h6.58c-.245-2.1-1.47-3.43-3.29-3.43-1.75 0-2.94 1.365-3.29 3.43zm24.9375 11.48c-5.95 0-10.15-3.955-10.15-9.905 0-5.53 3.955-9.905 9.555-9.905 6.545 0 9.555 4.795 9.555 10.36 0 .42 0 .91-.035 1.365h-12.67c.525 2.065 2.03 3.115 4.095 3.115 1.575 0 2.835-.595 4.2-1.925l3.675 3.045c-1.82 2.31-4.445 3.85-8.225 3.85zm-3.85-11.48h6.58c-.245-2.1-1.47-3.43-3.29-3.43-1.75 0-2.94 1.365-3.29 3.43z" fill="#333"/>
    <path d="M0 0h270v75H0z"/>
  </g>
</svg>
