<svg width="270" height="75" xmlns="http://www.w3.org/2000/svg">
  <g fill="none" fill-rule="evenodd">
    <path fill="#31CC8F" d="M18 66h234v9H18z"/>
    <path d="M37.55125 35.42c-4.34 0-8.47-1.365-11.48-4.06l3.78-4.515c2.415 1.925 5.11 2.94 7.945 2.94 1.82 0 2.8-.63 2.8-1.75 0-1.015-.805-1.575-4.13-2.345-5.215-1.19-9.24-2.66-9.24-7.77 0-4.55 3.605-7.84 9.485-7.84 4.165 0 7.42 1.12 10.08 3.255l-3.395 4.795c-2.24-1.575-4.69-2.415-6.86-2.415-1.645 0-2.45.7-2.45 1.645 0 1.12.84 1.61 4.235 2.38 5.635 1.225 9.135 3.045 9.135 7.7 0 5.005-3.955 7.98-9.905 7.98zm19.8975-.035c-3.99 0-6.37-1.75-6.37-6.265v-7.7h-2.24v-5.355h2.24V11.27h6.65v4.795h4.41v5.355h-4.41v6.405c0 1.33.595 1.89 1.82 1.89.875 0 1.715-.245 2.52-.63V34.3c-1.19.665-2.765 1.085-4.62 1.085zm12.8975.035c-3.605 0-6.37-2.065-6.37-5.915 0-3.92 2.975-5.95 7.42-5.95 1.75 0 3.465.35 4.55.735v-.315c0-1.96-1.225-3.08-3.78-3.08-1.995 0-3.535.385-5.215 1.05l-1.365-4.69c2.135-.875 4.41-1.47 7.665-1.47 3.395 0 5.705.805 7.21 2.31 1.435 1.4 2.03 3.36 2.03 6.02V35h-6.58v-1.96c-1.295 1.435-3.08 2.38-5.565 2.38zm2.38-4.165c1.925 0 3.29-1.225 3.29-3.115v-.875c-.665-.28-1.61-.49-2.59-.49-1.925 0-3.045.945-3.045 2.415 0 1.295.98 2.065 2.345 2.065zM85.79875 35V16.065h6.65v3.815c1.085-2.59 2.835-4.27 5.985-4.13v7h-.56c-3.465 0-5.425 1.995-5.425 6.37V35h-6.65zm22.4175.385c-3.99 0-6.37-1.75-6.37-6.265v-7.7h-2.24v-5.355h2.24V11.27h6.65v4.795h4.41v5.355h-4.41v6.405c0 1.33.595 1.89 1.82 1.89.875 0 1.715-.245 2.52-.63V34.3c-1.19.665-2.765 1.085-4.62 1.085zm27.09.035c-4.34 0-8.47-1.365-11.48-4.06l3.78-4.515c2.415 1.925 5.11 2.94 7.945 2.94 1.82 0 2.8-.63 2.8-1.75 0-1.015-.805-1.575-4.13-2.345-5.215-1.19-9.24-2.66-9.24-7.77 0-4.55 3.605-7.84 9.485-7.84 4.165 0 7.42 1.12 10.08 3.255l-3.395 4.795c-2.24-1.575-4.69-2.415-6.86-2.415-1.645 0-2.45.7-2.45 1.645 0 1.12.84 1.61 4.235 2.38 5.635 1.225 9.135 3.045 9.135 7.7 0 5.005-3.955 7.98-9.905 7.98zm22.1025.035c-5.95 0-10.15-3.955-10.15-9.905 0-5.53 3.955-9.905 9.555-9.905 6.545 0 9.555 4.795 9.555 10.36 0 .42 0 .91-.035 1.365h-12.67c.525 2.065 2.03 3.115 4.095 3.115 1.575 0 2.835-.595 4.2-1.925l3.675 3.045c-1.82 2.31-4.445 3.85-8.225 3.85zm-3.85-11.48h6.58c-.245-2.1-1.47-3.43-3.29-3.43-1.75 0-2.94 1.365-3.29 3.43zM169.25625 35V9.45h6.65V35h-6.65zm10.4125 0V9.45h6.65V35h-6.65zm10.4125 0V16.065h6.65V35h-6.65zm-.14-20.65v-4.9h6.93v4.9h-6.93zM200.35375 35V16.065h6.65v2.66c1.225-1.575 2.975-3.08 5.67-3.08 4.025 0 6.44 2.66 6.44 6.965V35h-6.65V24.745c0-2.065-1.085-3.185-2.66-3.185-1.61 0-2.8 1.12-2.8 3.185V35h-6.65zm31.4125 5.67c-3.675 0-6.755-.77-9.485-2.17l2.135-4.41c2.03 1.12 4.06 1.785 6.615 1.785 3.325 0 4.97-1.645 4.97-4.655v-.735c-1.33 1.54-3.08 2.835-5.845 2.835-4.655 0-8.4-3.36-8.4-8.855 0-5.46 3.815-8.82 8.19-8.82 2.835 0 4.515 1.155 5.95 2.66v-2.24h6.65V30.45c0 3.465-.77 5.88-2.45 7.56-1.715 1.715-4.375 2.66-8.33 2.66zm.385-12.46c2.24 0 3.85-1.575 3.85-3.745 0-2.1-1.61-3.64-3.85-3.64-2.275 0-3.885 1.575-3.885 3.745 0 2.1 1.61 3.64 3.885 3.64zM31.3125 70.455c-6.055 0-10.43-4.445-10.43-9.905 0-5.39 4.41-9.905 10.5-9.905 6.055 0 10.43 4.445 10.43 9.905 0 5.39-4.41 9.905-10.5 9.905zm.07-5.635c2.415 0 3.955-1.925 3.955-4.27 0-2.31-1.68-4.27-4.025-4.27-2.415 0-3.955 1.925-3.955 4.27 0 2.31 1.68 4.27 4.025 4.27zM44.525 70V51.065h6.65v2.66c1.225-1.575 2.975-3.08 5.67-3.08 4.025 0 6.44 2.66 6.44 6.965V70h-6.65V59.745c0-2.065-1.085-3.185-2.66-3.185-1.61 0-2.8 1.12-2.8 3.185V70h-6.65zm37.135.42c-3.605 0-6.37-2.065-6.37-5.915 0-3.92 2.975-5.95 7.42-5.95 1.75 0 3.465.35 4.55.735v-.315c0-1.96-1.225-3.08-3.78-3.08-1.995 0-3.535.385-5.215 1.05l-1.365-4.69c2.135-.875 4.41-1.47 7.665-1.47 3.395 0 5.705.805 7.21 2.31 1.435 1.4 2.03 3.36 2.03 6.02V70h-6.58v-1.96c-1.295 1.435-3.08 2.38-5.565 2.38zm2.38-4.165c1.925 0 3.29-1.225 3.29-3.115v-.875c-.665-.28-1.61-.49-2.59-.49-1.925 0-3.045.945-3.045 2.415 0 1.295.98 2.065 2.345 2.065zm29.61 3.92L105.46 45.5h7.175l4.27 14.175 4.725-14.245h5.845l4.725 14.245 4.27-14.175h7.035l-8.19 24.675H129.4l-4.935-14.105-4.9 14.105h-5.915zm39.1125.28c-5.95 0-10.15-3.955-10.15-9.905 0-5.53 3.955-9.905 9.555-9.905 6.545 0 9.555 4.795 9.555 10.36 0 .42 0 .91-.035 1.365h-12.67c.525 2.065 2.03 3.115 4.095 3.115 1.575 0 2.835-.595 4.2-1.925l3.675 3.045c-1.82 2.31-4.445 3.85-8.225 3.85zm-3.85-11.48h6.58c-.245-2.1-1.47-3.43-3.29-3.43-1.75 0-2.94 1.365-3.29 3.43zM176.895 70.42c-2.87 0-4.55-1.295-5.775-2.73V70h-6.65V44.45h6.65v9.135c1.295-1.575 2.905-2.94 5.74-2.94 4.515 0 8.4 3.745 8.4 9.87 0 6.16-3.885 9.905-8.365 9.905zm-2.065-5.565c2.17 0 3.885-1.75 3.885-4.375 0-2.485-1.715-4.27-3.885-4.27-2.135 0-3.85 1.785-3.85 4.34 0 2.52 1.715 4.305 3.85 4.305zm20.7375 5.565c-3.185 0-6.335-.91-8.96-2.8l2.485-4.025c2.17 1.435 4.55 2.17 6.51 2.17 1.155 0 1.68-.35 1.68-1.085s-1.05-1.085-3.045-1.61c-3.745-1.015-6.72-2.24-6.72-6.125 0-4.025 3.22-6.265 7.595-6.265 2.765 0 5.635.805 7.805 2.205l-2.275 4.2c-1.96-1.085-4.095-1.75-5.6-1.75-1.015 0-1.54.385-1.54.98 0 .735 1.085 1.085 3.08 1.68 3.745 1.085 6.72 2.345 6.72 6.09 0 4.165-3.115 6.335-7.735 6.335zM206.085 70V51.065h6.65V70h-6.65zm-.14-20.65v-4.9h6.93v4.9h-6.93zm17.9375 21.035c-3.99 0-6.37-1.75-6.37-6.265v-7.7h-2.24v-5.355h2.24V46.27h6.65v4.795h4.41v5.355h-4.41v6.405c0 1.33.595 1.89 1.82 1.89.875 0 1.715-.245 2.52-.63V69.3c-1.19.665-2.765 1.085-4.62 1.085zm16.3275.07c-5.95 0-10.15-3.955-10.15-9.905 0-5.53 3.955-9.905 9.555-9.905 6.545 0 9.555 4.795 9.555 10.36 0 .42 0 .91-.035 1.365h-12.67c.525 2.065 2.03 3.115 4.095 3.115 1.575 0 2.835-.595 4.2-1.925l3.675 3.045c-1.82 2.31-4.445 3.85-8.225 3.85zm-3.85-11.48h6.58c-.245-2.1-1.47-3.43-3.29-3.43-1.75 0-2.94 1.365-3.29 3.43z" fill="#333"/>
    <path d="M0 0h270v75H0z"/>
  </g>
</svg>
